<?xml version="1.0" encoding="UTF-8" standalone="no"?>
<!-- Generator: Adobe Illustrator 16.0.4, SVG Export Plug-In . SVG Version: 6.00 Build 0)  -->

<svg
   version="1.0"
   id="Ebene_1"
   x="0px"
   y="0px"
   width="400.033px"
   height="400.033px"
   viewBox="0 0 400.033 400.033"
   enable-background="new 0 0 400.033 400.033"
   xml:space="preserve"
   sodipodi:docname="google_scholar.svg"
   inkscape:version="1.1 (1:1.1+202105261517+ce6663b3b7)"
   xmlns:inkscape="http://www.inkscape.org/namespaces/inkscape"
   xmlns:sodipodi="http://sodipodi.sourceforge.net/DTD/sodipodi-0.dtd"
   xmlns="http://www.w3.org/2000/svg"
   xmlns:svg="http://www.w3.org/2000/svg"><defs
   id="defs9" /><sodipodi:namedview
   id="namedview7"
   pagecolor="#ffffff"
   bordercolor="#666666"
   borderopacity="1.0"
   inkscape:pageshadow="2"
   inkscape:pageopacity="0.0"
   inkscape:pagecheckerboard="0"
   showgrid="false"
   inkscape:zoom="2.109826"
   inkscape:cx="77.020569"
   inkscape:cy="127.73565"
   inkscape:window-width="1920"
   inkscape:window-height="1016"
   inkscape:window-x="1920"
   inkscape:window-y="27"
   inkscape:window-maximized="1"
   inkscape:current-layer="Ebene_1"
   inkscape:lockguides="false" />

<symbol
   id="g7"
   viewBox="0 0 237 271"><path
     d="m 234.10392,0.69977 c -2.76504,-0.09758 -5.52803,-0.230464 -8.29408,-0.268874 -8.05113,-0.110042 -16.10433,-0.220083 -24.15649,-0.26057 -11.21662,-0.0571 -22.43117,-0.06955 -33.64778,-0.07163 -26.97712,-0.0052 -53.95423,0.01246 -80.93133,-0.0073 -1.00575,0 -1.74591,0.266798 -2.50357,0.950922 C 79.89812,5.264373 75.2029,9.461513 70.46858,13.611937 49.29434,32.177768 28.10054,50.72077 6.92424,69.28347 c -2.94519,2.58182 -5.90478,5.14911 -8.674966,7.92609 -0.353093,0.35402 -0.875011,0.64156 -0.858541,1.3859 1.533844,0.11419 2.997687,0.29275 4.463587,0.32285 6.37111,0.12874 12.74325,0.26992 19.11436,0.30106 10.22734,0.0498 20.45571,0.0155 30.68304,0.0176 0.3953,0 0.79163,0.0166 1.1859,0.002 0.54354,-0.0197 0.77001,0.22734 0.85751,0.77651 0.25015,1.57069 0.58266,3.12787 0.84104,4.69648 1.04487,6.34813 2.55195,12.5665 5.0833,18.49732 4.81874,11.28648 12.5662,19.77524 23.59854,25.133 7.79069,3.78396 16.08065,5.64013 24.62076,6.55783 2.69812,0.29068 5.41684,0.37685 8.0954,0.85334 2.15149,0.38204 2.21944,0.51076 1.56678,2.5403 -1.21369,3.77669 -2.00635,7.66136 -1.46178,11.61039 0.9656,6.99177 3.34459,13.4894 7.41804,19.29564 0.25117,0.35815 0.58574,0.67478 0.67117,1.27273 -0.52294,0.079 -1.03869,0.1931 -1.5606,0.23047 -1.72326,0.12457 -3.44858,0.23773 -5.17389,0.32493 -6.06538,0.30729 -12.10295,0.86788 -18.1117,1.79181 -8.01922,1.23225 -15.87477,3.08323 -23.4606,6.01801 -7.7176,2.98564 -14.82372,7.01357 -21.05277,12.54783 -7.03612,6.25054 -11.97736,13.96796 -15.64932,22.58751 -0.96971,2.27558 -1.44016,4.64977 -1.45972,7.11325 -0.0216,2.88909 -0.0422,5.78028 0.0247,8.66937 0.0535,2.29945 0.46325,4.54388 1.36605,6.68345 1.20443,2.85485 2.69812,5.53841 4.548,8.01432 4.90212,6.56095 11.15897,11.52943 18.20744,15.50856 12.97384,7.32397 26.90197,11.31349 41.77613,11.79104 8.49789,0.27405 16.98448,0.0445 25.42988,-1.07966 8.10055,-1.07862 15.97771,-3.05 23.61088,-5.99621 7.90188,-3.05106 15.22212,-7.11634 21.5891,-12.79905 9.76617,-8.71609 15.38476,-19.57385 16.32257,-32.73831 0.58574,-8.21987 -0.35412,-16.29338 -2.87621,-24.16133 -2.33061,-7.26792 -6.17346,-13.53611 -11.87854,-18.60944 -2.41091,-2.14371 -4.91036,-4.17429 -7.5045,-6.08341 -4.54697,-3.34899 -9.11865,-6.66579 -13.38767,-10.37918 -3.03577,-2.64098 -5.94185,-5.40759 -8.15305,-8.82821 -3.64314,-5.64013 -4.46667,-13.60359 0.25015,-20.20295 1.89414,-2.64931 4.14756,-4.93836 6.5842,-7.05614 3.10681,-2.69809 6.30112,-5.28924 9.41513,-7.98111 7.22861,-6.24951 12.35721,-13.87143 15.32813,-23.00693 1.45561,-4.47639 2.01355,-9.02026 1.49781,-13.68767 -0.46118,-4.16496 -1.52149,-8.2043 -2.69091,-12.21563 -1.19619,-4.10163 -2.37901,-8.20534 -3.48461,-12.33396 -0.63619,-2.37419 -0.0186,-4.15354 1.61207,-5.809341 1.67489,-1.70045 3.4208,-3.312655 5.29846,-4.777456 6.01596,-4.694394 12.12457,-9.267339 18.06641,-14.059327 3.43417,-2.768677 6.92597,-5.46158 10.60411,-7.897016 1.03148,-0.684129 2.07532,-1.35683 3.21798,-1.835406 1.08501,-0.454702 1.57605,-0.199317 1.79532,0.966497 0.21103,1.131555 0.14617,2.285949 -6e-4,3.42373 -0.41692,3.223378 -1.22604,6.355405 -2.49842,9.334827 -1.50708,3.530663 -2.19679,7.223274 -2.38518,11.020729 -0.23676,4.774343 -0.42205,9.552833 -0.56721,14.331313 -0.22236,7.41845 -0.40867,14.83689 -0.57853,22.25637 -0.13486,5.92666 -0.25839,11.85436 -0.3181,17.78205 -0.0545,5.48026 -0.0638,10.9626 -0.007,16.44183 0.0453,4.33208 0.17398,8.66522 0.5806,12.98175 0.15853,1.68591 0.45089,3.35004 1.14575,4.91656 0.96663,2.18214 2.54679,3.63343 4.86816,4.21997 2.52208,0.63638 5.07094,0.64261 7.64656,0.42772 2.08561,-0.17441 3.44858,-1.28624 4.42653,-3.05105 0.82765,-1.49283 1.36296,-3.08842 1.72634,-4.74527 1.42061,-6.46856 1.60797,-13.03989 1.35061,-19.61434 -0.3181,-8.15863 -0.9306,-16.30583 -1.25899,-24.46446 -0.32323,-8.06208 -0.48692,-16.13039 -0.65471,-24.19766 -0.1431,-6.82463 -0.0236,-13.651339 -0.21206,-20.47701 -0.0515,-1.880051 -0.38501,-3.622021 -1.04384,-5.362957 -1.36811,-3.623057 -2.81445,-7.223273 -3.70696,-11.010353 -0.81015,-3.440352 -1.12207,-6.87862 0.19353,-10.278482 1.06649,-2.755184 2.90092,-4.959125 5.00094,-6.957515 2.04754,-1.948562 4.2258,-3.756975 6.14774,-5.839454 0.38089,-0.413174 0.87912,-0.771327 0.92853,-1.362021 -0.31191,-0.320781 -0.62485,-0.248111 -0.90794,-0.258493 z m -75.3498,192.3864 c 2.18959,1.79595 4.17535,3.80681 5.98817,5.99102 2.6518,3.1912 4.18256,6.95336 5.44051,10.85567 1.31972,4.09852 2.099,8.28839 2.03107,12.61011 -0.13075,8.2126 -2.97916,15.35906 -8.43307,21.43417 -5.2655,5.86437 -11.88574,9.61097 -19.15141,12.34954 -5.18007,1.95271 -10.54337,2.88391 -16.0333,3.29709 -3.99005,0.3 -7.97599,0.60626 -12.49825,0.60937 -6.73759,0.47131 -13.55135,-1.6039 -20.326,-3.78293 -6.1961,-1.99216 -12.02059,-4.7816 -17.22948,-8.77007 C 71.6936,242.43655 66.86148,235.74895 65.10939,227.2 c -2.43561,-11.8855 -0.0216,-22.67369 8.27041,-31.75106 3.68946,-4.03934 8.29304,-6.89003 13.18075,-9.25281 6.35979,-3.07493 13.05517,-5.04944 20.00997,-6.19864 4.20211,-0.69451 8.43201,-1.05681 12.67737,-1.0537 14.81136,0.0114 28.00345,4.70167 39.50623,14.14238 z m -10.54954,-79.29719 c -1.9312,3.33445 -4.26389,6.35955 -7.20391,8.8469 -7.20289,6.09691 -15.29108,7.40702 -24.11327,4.31757 -8.03774,-2.81644 -14.5818,-7.80671 -20.16951,-14.19326 C 89.01882,103.96 83.75743,93.90161 81.33107,82.40852 79.39782,73.25018 79.4256,64.12403 82.42535,55.16086 c 2.10003,-6.274434 5.5136,-11.666461 10.91397,-15.607176 3.7121,-2.708475 7.8751,-4.284345 12.42104,-4.833518 10.11719,-1.221873 18.86524,1.835407 26.50769,8.512633 10.56293,9.231001 17.47758,20.663881 20.56997,34.414881 0.92031,4.08503 1.42884,8.23025 1.38149,10.78094 -0.0236,10.06773 -1.77164,18.03742 -6.01493,25.36036 z"
     id="path4" /></symbol>
</svg>
